<svg width="22" height="20" viewBox="0 0 22 20" fill="none" xmlns="http://www.w3.org/2000/svg">
<path d="M16.0396 0C15.0078 0.016605 13.9985 0.314612 13.1137 0.863927C12.2288 1.41324 11.4997 2.19441 11 3.12855C10.5003 2.19441 9.77118 1.41324 8.88632 0.863927C8.00146 0.314612 6.99216 0.016605 5.96037 0C4.31556 0.0739388 2.76589 0.818405 1.64991 2.07075C0.533927 3.3231 -0.0576437 4.98153 0.00443589 6.68372C0.00443589 10.9945 4.38983 15.7025 8.06785 18.8946C8.88905 19.6086 9.92734 20 11 20C12.0727 20 13.1109 19.6086 13.9321 18.8946C17.6102 15.7025 21.9956 10.9945 21.9956 6.68372C22.0576 4.98153 21.4661 3.3231 20.3501 2.07075C19.2341 0.818405 17.6844 0.0739388 16.0396 0ZM12.7547 17.444C12.2636 17.872 11.6421 18.1066 11 18.1066C10.3579 18.1066 9.73644 17.872 9.24529 17.444C4.53736 13.357 1.83703 9.4359 1.83703 6.68372C1.77439 5.48418 2.17273 4.30766 2.94517 3.41078C3.7176 2.5139 4.80147 1.96942 5.96037 1.89609C7.11927 1.96942 8.20313 2.5139 8.97557 3.41078C9.748 4.30766 10.1463 5.48418 10.0837 6.68372C10.0837 6.93516 10.1802 7.1763 10.3521 7.35409C10.5239 7.53189 10.757 7.63177 11 7.63177C11.243 7.63177 11.4761 7.53189 11.6479 7.35409C11.8198 7.1763 11.9163 6.93516 11.9163 6.68372C11.8537 5.48418 12.252 4.30766 13.0244 3.41078C13.7969 2.5139 14.8807 1.96942 16.0396 1.89609C17.1985 1.96942 18.2824 2.5139 19.0548 3.41078C19.8273 4.30766 20.2256 5.48418 20.163 6.68372C20.163 9.4359 17.4626 13.357 12.7547 17.4403V17.444Z" fill="#1B4942"/>
</svg>
