<svg width="22" height="22" viewBox="0 0 22 22" fill="none" xmlns="http://www.w3.org/2000/svg">
<path d="M17.7259 13.4443C17.0336 13.4448 16.3519 13.614 15.7395 13.9373C15.1271 14.2605 14.6025 14.728 14.2109 15.2995L8.25111 12.6056C8.67441 11.5823 8.67606 10.4329 8.25569 9.4084L14.2072 6.70071C14.7876 7.54103 15.6496 8.14527 16.6369 8.40383C17.6241 8.66239 18.6713 8.55815 19.5884 8.11001C20.5055 7.66187 21.2317 6.89952 21.6354 5.96124C22.0392 5.02296 22.0936 3.9709 21.7888 2.9959C21.4841 2.02089 20.8403 1.18752 19.9744 0.646952C19.1085 0.106384 18.0777 -0.105576 17.069 0.049519C16.0603 0.204614 15.1406 0.716492 14.4766 1.4923C13.8126 2.26811 13.4484 3.25647 13.45 4.27809C13.4539 4.51989 13.4784 4.76092 13.5232 4.99855L7.19632 7.87673C6.58867 7.3068 5.82794 6.92697 5.00761 6.78391C4.18728 6.64084 3.34307 6.74078 2.5787 7.07144C1.81432 7.40211 1.16308 7.94909 0.704969 8.64519C0.24686 9.3413 0.00183986 10.1562 1.0321e-05 10.9898C-0.00181922 11.8234 0.239622 12.6394 0.694671 13.3375C1.14972 14.0356 1.79856 14.5854 2.56147 14.9195C3.32439 15.2535 4.16815 15.3571 4.9891 15.2177C5.81005 15.0782 6.57243 14.7017 7.18259 14.1345L13.526 17.0017C13.4819 17.2391 13.4577 17.4798 13.4536 17.7212C13.4535 18.5674 13.7039 19.3946 14.1734 20.0982C14.6429 20.8018 15.3103 21.3503 16.0911 21.6742C16.872 21.9981 17.7313 22.0829 18.5603 21.9178C19.3893 21.7528 20.1507 21.3454 20.7484 20.747C21.3461 20.1487 21.7531 19.3864 21.9179 18.5565C22.0828 17.7266 21.9981 16.8664 21.6745 16.0846C21.351 15.3029 20.8032 14.6348 20.1003 14.1648C19.3974 13.6949 18.5711 13.4441 17.7259 13.4443ZM17.7259 1.83346C18.2089 1.83328 18.6811 1.9765 19.0828 2.24501C19.4845 2.51352 19.7977 2.89526 19.9826 3.34194C20.1676 3.78862 20.2161 4.28018 20.122 4.75445C20.0278 5.22872 19.7953 5.66439 19.4539 6.00637C19.1124 6.34835 18.6773 6.58127 18.2036 6.67567C17.7298 6.77007 17.2388 6.72171 16.7925 6.53671C16.3463 6.35171 15.9648 6.03838 15.6965 5.63634C15.4281 5.23431 15.2849 4.76163 15.2849 4.27809C15.2854 3.63004 15.5427 3.00866 16.0003 2.55034C16.458 2.09201 17.0786 1.83419 17.7259 1.83346ZM4.29748 13.4443C3.81447 13.4445 3.34226 13.3012 2.94056 13.0327C2.53886 12.7642 2.22573 12.3825 2.04077 11.9358C1.8558 11.4891 1.80731 10.9976 1.90143 10.5233C1.99555 10.049 2.22805 9.61335 2.56953 9.27137C2.911 8.92939 3.34611 8.69647 3.81983 8.60207C4.29355 8.50767 4.78459 8.55603 5.23085 8.74103C5.67711 8.92603 6.05854 9.23936 6.32691 9.6414C6.59527 10.0434 6.73851 10.5161 6.73851 10.9997C6.73779 11.6476 6.4804 12.2689 6.02281 12.7271C5.56521 13.1854 4.94475 13.4433 4.29748 13.4443ZM17.7259 20.1658C17.2429 20.1658 16.7708 20.0225 16.3692 19.7539C15.9677 19.4852 15.6547 19.1034 15.4698 18.6567C15.285 18.21 15.2367 17.7185 15.3309 17.2443C15.4251 16.7701 15.6577 16.3345 15.9992 15.9926C16.3407 15.6507 16.7758 15.4179 17.2495 15.3236C17.7232 15.2292 18.2142 15.2777 18.6604 15.4627C19.1066 15.6477 19.488 15.961 19.7563 16.3631C20.0246 16.7651 20.1679 17.2377 20.1679 17.7212C20.1674 18.3694 19.9099 18.9909 19.4521 19.4493C18.9942 19.9076 18.3734 20.1654 17.7259 20.1658Z" fill="#1B4942"/>
</svg>
